<svg width="343" height="395" viewBox="0 0 343 395" fill="none" xmlns="http://www.w3.org/2000/svg">
<path d="M171.04 0L342.08 98.75V296.25L171.04 395L1.52588e-05 296.25V98.75L171.04 0Z" fill="#006E3B"/>
<path d="M64.54 300V99L161.119 294V99H228.83M296.54 99H228.83M228.83 99V294" stroke="white" stroke-width="16" stroke-linecap="round" stroke-linejoin="round"/>
<circle cx="64.54" cy="300" r="10" fill="white"/>
<circle cx="151.54" cy="362" r="5" fill="white"/>
<circle cx="32.54" cy="141" r="5" fill="white"/>
<circle cx="188.54" cy="342" r="5" fill="white"/>
<path d="M151.54 362V342H189.04" stroke="white" stroke-width="5"/>
<circle cx="293.54" cy="192" r="5" fill="white"/>
<circle cx="64.54" cy="101" r="10" fill="white"/>
<circle cx="296.54" cy="99" r="10" fill="white"/>
<circle cx="229.54" cy="300" r="10" fill="white"/>
<g filter="url(#filter0_d_0_1)">
<path d="M15.04 187.5L32.54 170V141M277.54 240V221H293.54V191.5" stroke="white" stroke-width="5"/>
</g>
<circle cx="16.54" cy="187" r="5" fill="white"/>
<circle cx="276.54" cy="240" r="5" fill="white"/>
<defs>
<filter id="filter0_d_0_1" x="9.27228" y="141" width="290.768" height="107" filterUnits="userSpaceOnUse" color-interpolation-filters="sRGB">
<feFlood flood-opacity="0" result="BackgroundImageFix"/>
<feColorMatrix in="SourceAlpha" type="matrix" values="0 0 0 0 0 0 0 0 0 0 0 0 0 0 0 0 0 0 127 0" result="hardAlpha"/>
<feOffset dy="4"/>
<feGaussianBlur stdDeviation="2"/>
<feComposite in2="hardAlpha" operator="out"/>
<feColorMatrix type="matrix" values="0 0 0 0 0 0 0 0 0 0 0 0 0 0 0 0 0 0 0.25 0"/>
<feBlend mode="normal" in2="BackgroundImageFix" result="effect1_dropShadow_0_1"/>
<feBlend mode="normal" in="SourceGraphic" in2="effect1_dropShadow_0_1" result="shape"/>
</filter>
</defs>
</svg>
