<svg version="1.2" xmlns="http://www.w3.org/2000/svg" viewBox="0 0 1224 1540" width="1224" height="1540">

	<style>
		.s0 { fill: #020203 } 
		.s1 { fill: #68bf4b } 
		.s2 { fill: #c21e4a } 
	</style>
	<g id="Clip-Path: Page 1" clip-path="url(#cp1)">
		<g id="Page 1">
			<path id="Path 4" class="s0" d="m331.3 0.5c-7.5 0-16.2 2.5-26.1 9.9-23.6-8.7-46-11.2-67.1 6.2-31.1-3.7-41 5-49.7 15-6.2 0-52.2-7.5-72.1 22.3-52.1-4.9-68.3 31.1-49.7 64.7-11.1 16.1-22.3 32.3 2.5 62.1-8.7 17.4-2.5 36.1 17.4 58.4-5 24.9 6.2 41.1 24.9 54.7-3.8 33.6 31 52.2 41 59.7 3.7 18.6 12.4 37.3 50.9 47.2 7.5 28.6 31.1 33.6 53.4 39.8-75.8 43.5-140.4 99.4-139.1 239.9l-11.2 18.6c-87 52.2-165.2 218.8-43.5 354.3 8.7 42.2 21.1 72.1 33.6 106.9 17.4 135.5 134.1 198.9 164 206.3 44.7 33.6 93.1 65.9 157.7 88.3 60.9 60.9 126.8 84.5 192.6 84.5q1.2 0 2.5 0c67.1 0 132.9-23.6 193.8-84.5 64.6-22.4 111.8-54.7 156.5-88.3 31.1-7.4 146.6-70.8 164-206.3 12.5-34.8 26.1-64.7 33.6-106.9 121.7-135.5 43.5-302.1-42.3-354.3l-11.1-18.6c0-140.5-64.6-196.4-140.4-239.9 23.6-6.2 47.2-11.2 53.4-39.8 38.5-9.9 47.2-28.6 50.9-47.2 10-7.5 44.8-26.1 41-59.7 19.9-13.6 29.8-29.8 24.9-54.7 19.9-22.3 26.1-41 17.4-58.4 24.8-29.8 13.6-46 2.5-62.1 18.6-33.6 2.4-69.6-49.7-64.7-19.9-29.8-65.9-22.3-72.1-22.3-7.5-10-18.6-18.7-49.7-15-21.1-17.4-43.5-14.9-67.1-6.2-28.6-21.1-47.2-3.7-68.3 2.5-33.6-11.2-41 3.7-58.4 10-37.3-7.5-48.5 9.9-65.9 27.3h-21.1c-55.9 32.3-83.2 98.2-93.2 131.8-9.9-33.6-37.2-99.5-93.1-131.8h-21.2c-17.3-17.4-28.5-34.8-65.8-27.3-16.1-6.3-24.8-21.2-58.4-10-13.7-3.7-27.3-13.7-42.2-12.4z"/>
			<path id="Path 5" fill-rule="evenodd" class="s1" d="m221.9 143.4c147.9 74.6 233.6 135.5 280.8 187.7-23.6 95.7-150.3 100.7-196.3 97 10-3.8 17.4-8.7 19.9-17.4-11.2-7.5-52.2 0-80.8-16.2 11.2-2.5 16.2-5 21.2-12.4-27.4-8.7-55.9-16.2-73.3-29.9 9.9 0 17.4 1.3 29.8-6.2-23.6-13.6-49.7-23.6-69.6-43.5 12.4 0 26.1 0 29.8-3.7q-33.5-21.1-57.1-46c18.6 2.5 24.8 0 29.8-2.5-17.4-17.4-38.5-31.1-48.5-52.2 13.7 5 24.9 6.2 33.6 0-5-12.4-29.8-19.9-43.5-49.7 13.7 1.2 27.3 2.5 31.1 0-6.3-26.1-17.4-39.8-28.6-54.7 29.8-1.2 74.5 0 72-2.5l-18.6-18.6c28.6-7.5 58.4 1.2 79.5 7.4 10-7.4 0-16.1-11.2-26.1q36.1 5 65.9 16.2c11.2-8.7-7.5-18.7-14.9-28.6 37.2 7.5 53.4 17.4 69.6 27.3 11.1-11.1 0-19.8-7.5-29.8 28.6 11.2 42.2 23.6 58.4 37.3 5-7.5 12.4-12.4 3.7-28.6 19.9 11.2 34.8 24.9 46 39.8 12.4-7.5 7.4-18.7 7.4-28.6 21.2 17.4 34.8 34.8 51 52.2 2.5-2.5 6.2-9.9 8.7-22.4 49.7 47.3 120.5 167.8 17.4 215.1-87-70.9-191.4-121.8-305.7-160.4zm478.4 160.4c-101.9-47.3-31.1-167.8 18.6-215.1 2.5 12.5 5 19.9 8.7 22.4 16.1-17.4 29.8-34.8 49.7-52.2 0 9.9-5 21.1 7.4 28.6 11.2-14.9 27.4-28.6 47.3-39.8-10 16.2-1.3 21.1 3.7 28.6 14.9-13.7 29.8-26.1 58.4-37.3-7.5 10-18.7 18.7-7.5 29.8 16.2-9.9 32.3-19.8 69.6-27.3-8.7 9.9-26.1 19.9-14.9 28.6q29.8-11.2 65.8-16.2c-11.2 10-21.1 18.7-12.4 26.1 22.4-6.2 50.9-14.9 79.5-7.4l-17.4 18.6c-2.5 2.5 42.3 1.3 70.8 2.5-9.9 14.9-21.1 28.6-27.3 54.7 2.5 2.5 17.4 1.2 31.1 0-13.7 29.8-38.5 37.3-44.8 49.7 8.7 6.2 21.2 5 33.6 0-10 21.1-31.1 34.8-47.2 52.2 3.7 2.5 11.2 5 28.6 2.5q-22.4 24.9-56 46c3.8 3.7 17.4 3.7 29.9 3.7-19.9 19.9-46 29.9-70.9 43.5 12.5 7.5 21.2 6.2 29.9 6.2-16.2 13.7-46 21.2-73.3 29.9 6.2 7.4 11.1 9.9 22.3 12.4-29.8 16.2-70.8 8.7-82 16.2 2.5 8.7 11.2 13.6 19.9 17.4-46 3.7-171.4-1.3-196.3-97 47.2-52.2 134.2-113.1 282-187.7-115.5 38.6-219.9 89.5-306.8 160.4z"/>
			<path id="Path 6" fill-rule="evenodd" class="s2" d="m793.4 1115.4c1.3 89.5-78.2 162.9-176.4 162.9-98.1 0-177.6-70.9-178.9-160.4q0-1.2 0-2.5c0-88.2 78.3-161.6 176.4-161.6 98.2 0 178.9 70.9 178.9 160.4q0 1.2 0 1.2zm-277-461.1c73.3 48.5 87 155.4 29.8 241.1-57.1 85.8-162.8 115.6-237.3 68.4-73.3-47.2-87-155.4-29.8-239.9 58.4-85.8 164-116.8 237.3-69.6zm436.1 60.9c57.1 84.5 43.4 192.7-29.9 239.9-73.3 47.2-180.1 17.4-237.2-68.4-57.2-85.7-43.5-192.6 29.8-239.9 73.3-48.4 180.1-17.4 237.3 68.4zm-798.9 17.4c79.5-21.1 26.1 324.4-38.5 295.8-70.8-55.9-93.2-221.2 38.5-295.8zm955.4 292.1c-64.6 28.6-116.8-317-37.3-295.8 131.7 74.5 109.4 238.6 37.3 295.8zm-304.4-553.1c137.9-23.6 252.2 57.1 247.3 203.8-5 56-297-195.1-247.3-203.8zm-624.9 198.8c-5-145.4 109.3-226.2 246-203.8 50.9 8.7-242.3 261-246 203.8zm597.6-133c0 44.8-63.4 82.1-161.5 80.8-96.9-1.2-161.5-45.9-161.5-89.5 0-36 79.5-98.1 161.5-95.7 72-1.2 161.5 53.5 161.5 104.4zm-155.3 790.6c70.8-2.5 166.5 23.6 166.5 57.2 1.2 33.5-87 108.1-171.5 106.9-88.2 3.7-175.2-72.1-173.9-97-1.3-38.5 108.1-68.4 178.9-67.1zm-264.6-201.4c50.9 59.7 74.5 165.3 31 197.7-39.7 23.6-136.6 13.6-206.2-84.6-47.2-82-41-165.3-7.5-190.1 48.5-29.9 124.3 9.9 182.7 77zm688.2-99.4c32.3 31.1 51 147.9-4.9 217.5-75.8 103.2-178.9 108.1-217.4 78.3-39.8-37.3-8.7-152.9 45.9-216.3 62.1-69.6 130.5-115.6 176.4-79.5z"/>
		</g>
	</g>
</svg>